<svg width="21" height="21" viewBox="0 0 21 21" fill="none" xmlns="http://www.w3.org/2000/svg">
<path d="M10.125 0C8.12247 0 6.1649 0.593821 4.49986 1.70637C2.83481 2.81892 1.53706 4.40023 0.770724 6.25033C0.00438702 8.10043 -0.196122 10.1362 0.194554 12.1003C0.585229 14.0643 1.54954 15.8685 2.96555 17.2845C4.38156 18.7005 6.18566 19.6648 8.14971 20.0555C10.1138 20.4461 12.1496 20.2456 13.9997 19.4793C15.8498 18.7129 17.4311 17.4152 18.5436 15.7501C19.6562 14.0851 20.25 12.1275 20.25 10.125C20.247 7.4406 19.1793 4.86699 17.2812 2.96883C15.383 1.07067 12.8094 0.00297771 10.125 0ZM10.125 17.5312C9.29606 16.5611 8.64854 15.4496 8.21344 14.25H12.0403C11.7927 14.9283 11.4787 15.5806 11.1028 16.1972C10.8136 16.6677 10.4866 17.1138 10.125 17.5312ZM7.64157 12C7.45591 10.7569 7.45591 9.49311 7.64157 8.25H12.6103C12.796 9.49311 12.796 10.7569 12.6103 12H7.64157ZM2.25 10.125C2.24999 9.4931 2.32648 8.86351 2.47782 8.25H5.36719C5.21092 9.49512 5.21092 10.7549 5.36719 12H2.47782C2.32648 11.3865 2.24999 10.7569 2.25 10.125ZM10.125 2.71875C10.954 3.68891 11.6015 4.80039 12.0366 6H8.21157C8.45921 5.32166 8.77323 4.66943 9.14907 4.05281C9.43768 3.58241 9.76407 3.13625 10.125 2.71875ZM14.8809 8.25H17.7703C18.0741 9.48154 18.0741 10.7685 17.7703 12H14.8828C15.0391 10.7549 15.0391 9.49512 14.8828 8.25H14.8809ZM16.8281 6H14.4103C14.0725 4.86597 13.5838 3.78252 12.9572 2.77875C14.5642 3.40253 15.9239 4.53348 16.83 6H16.8281ZM7.29282 2.77875C6.66625 3.78252 6.1775 4.86597 5.83969 6H3.42C4.32608 4.53348 5.68578 3.40253 7.29282 2.77875ZM3.42 14.25H5.83969C6.1775 15.384 6.66625 16.4675 7.29282 17.4713C5.68578 16.8475 4.32608 15.7165 3.42 14.25ZM12.9572 17.4713C13.5838 16.4675 14.0725 15.384 14.4103 14.25H16.83C15.9239 15.7165 14.5642 16.8475 12.9572 17.4713Z" fill="#101010"/>
</svg>
