<svg width="24" height="24" viewBox="0 0 24 24" fill="none" xmlns="http://www.w3.org/2000/svg">
<path d="M3 9V19.5H21V9H3ZM2.25 7.5H21.75C21.9489 7.5 22.1397 7.57902 22.2803 7.71967C22.421 7.86032 22.5 8.05109 22.5 8.25V20.25C22.5 20.4489 22.421 20.6397 22.2803 20.7803C22.1397 20.921 21.9489 21 21.75 21H2.25C2.05109 21 1.86032 20.921 1.71967 20.7803C1.57902 20.6397 1.5 20.4489 1.5 20.25V8.25C1.5 8.05109 1.57902 7.86032 1.71967 7.71967C1.86032 7.57902 2.05109 7.5 2.25 7.5ZM3.75 4.5H20.25V6H3.75V4.5ZM6 1.5H18V3H6V1.5Z" fill="#101010"/>
</svg>
