<svg width="20" height="21" viewBox="0 0 20 21" fill="none" xmlns="http://www.w3.org/2000/svg">
<path d="M16.9805 16.2972L14.1472 13.4722C15.0613 12.3076 15.5573 10.8694 15.5555 9.38884C15.5555 8.0703 15.1645 6.78136 14.432 5.68504C13.6994 4.58871 12.6582 3.73423 11.4401 3.22964C10.2219 2.72506 8.88144 2.59303 7.58824 2.85027C6.29503 3.1075 5.10714 3.74244 4.17479 4.67479C3.24244 5.60714 2.6075 6.79503 2.35027 8.08824C2.09303 9.38144 2.22506 10.7219 2.72964 11.9401C3.23423 13.1582 4.08871 14.1994 5.18504 14.932C6.28136 15.6645 7.5703 16.0555 8.88884 16.0555C10.3694 16.0573 11.8076 15.5613 12.9722 14.6472L15.7972 17.4805C15.8746 17.5586 15.9668 17.6206 16.0684 17.6629C16.1699 17.7052 16.2788 17.727 16.3888 17.727C16.4988 17.727 16.6078 17.7052 16.7093 17.6629C16.8109 17.6206 16.903 17.5586 16.9805 17.4805C17.0586 17.403 17.1206 17.3109 17.1629 17.2093C17.2052 17.1078 17.227 16.9988 17.227 16.8888C17.227 16.7788 17.2052 16.6699 17.1629 16.5684C17.1206 16.4668 17.0586 16.3746 16.9805 16.2972ZM3.88884 9.38884C3.88884 8.39993 4.18208 7.43323 4.73149 6.61099C5.2809 5.78874 6.06179 5.14788 6.97542 4.76944C7.88905 4.391 8.89438 4.29199 9.86429 4.48491C10.8342 4.67784 11.7251 5.15404 12.4244 5.8533C13.1236 6.55257 13.5998 7.44348 13.7928 8.41339C13.9857 9.38329 13.8867 10.3886 13.5082 11.3023C13.1298 12.2159 12.4889 12.9968 11.6667 13.5462C10.8444 14.0956 9.87774 14.3888 8.88884 14.3888C7.56276 14.3888 6.29099 13.8621 5.3533 12.9244C4.41562 11.9867 3.88884 10.7149 3.88884 9.38884Z" fill="#878790"/>
</svg>
