<svg width="20" height="20" viewBox="0 0 20 20" fill="none" xmlns="http://www.w3.org/2000/svg">
<path d="M18.2592 5.95175C17.9672 4.94897 17.4269 4.03607 16.6884 3.29755C15.9498 2.55903 15.0369 2.01876 14.0342 1.72675C13.7609 1.65619 13.4741 1.65619 13.2008 1.72675C12.926 1.80655 12.6763 1.95579 12.4758 2.16009L10.6175 4.02675L2.6675 11.9684C2.41716 12.229 2.25407 12.561 2.20083 12.9184L1.6925 16.3851C1.65332 16.6445 1.67326 16.9094 1.75083 17.1601C1.83583 17.4101 1.97583 17.6376 2.15917 17.8268C2.34583 18.0118 2.57083 18.1534 2.8175 18.2434C2.99 18.3001 3.17 18.3276 3.35083 18.3268H3.5925L7.05917 17.8184C7.42108 17.772 7.75775 17.608 8.0175 17.3518L15.9758 9.39342L17.8258 7.55175C18.0344 7.3478 18.1857 7.09267 18.2646 6.81188C18.3436 6.5311 18.3475 6.2345 18.2758 5.95175H18.2592ZM17.0425 6.47675C17.0198 6.54678 16.9797 6.60988 16.9258 6.66009L15.5175 8.06842L11.9175 4.47675L13.3425 3.05175C13.3972 3.0014 13.4628 2.96433 13.5342 2.94342H13.7258C14.5148 3.17808 15.2328 3.60578 15.8148 4.18781C16.3968 4.76983 16.8245 5.48781 17.0592 6.27675C17.0679 6.34384 17.0622 6.41203 17.0425 6.47675Z" fill="#32D583"/>
</svg>
