<svg width="20" height="20" viewBox="0 0 20 20" fill="none" xmlns="http://www.w3.org/2000/svg">
<path d="M16.6667 16.6666L13.2917 13.2916M13.2917 13.2916C13.8334 12.7499 14.2631 12.1068 14.5562 11.3991C14.8494 10.6913 15.0003 9.93272 15.0003 9.16664C15.0003 8.40056 14.8494 7.64197 14.5562 6.9342C14.2631 6.22644 13.8334 5.58334 13.2917 5.04164C12.75 4.49994 12.1069 4.07023 11.3991 3.77707C10.6913 3.4839 9.93275 3.33301 9.16667 3.33301C8.40059 3.33301 7.642 3.4839 6.93424 3.77707C6.22647 4.07023 5.58337 4.49994 5.04167 5.04164C3.94765 6.13566 3.33304 7.61946 3.33304 9.16664C3.33304 10.7138 3.94765 12.1976 5.04167 13.2916C6.13569 14.3857 7.61949 15.0003 9.16667 15.0003C10.7138 15.0003 12.1977 14.3857 13.2917 13.2916Z" stroke="#101010" stroke-width="1.66667" stroke-linecap="round" stroke-linejoin="round"/>
</svg>
