<svg width="32" height="32" viewBox="0 0 32 32" fill="none" xmlns="http://www.w3.org/2000/svg">
<path d="M5.33335 26.6668C4.60002 26.6668 3.97246 26.4059 3.45069 25.8842C2.92891 25.3624 2.66758 24.7344 2.66669 24.0002V8.00016C2.66669 7.26683 2.92802 6.63927 3.45069 6.1175C3.97335 5.59572 4.60091 5.33438 5.33335 5.3335H26.6667C27.4 5.3335 28.028 5.59483 28.5507 6.1175C29.0734 6.64016 29.3342 7.26772 29.3334 8.00016V24.0002C29.3334 24.7335 29.0725 25.3615 28.5507 25.8842C28.0289 26.4068 27.4009 26.6677 26.6667 26.6668H5.33335ZM16 17.3335L26.6667 10.6668V8.00016L16 14.6668L5.33335 8.00016V10.6668L16 17.3335Z" fill="#ABAAAA"/>
</svg>
