<svg width="25" height="24" viewBox="0 0 25 24" fill="none" xmlns="http://www.w3.org/2000/svg">
<path d="M12.25 9C11.4544 9 10.6913 9.31607 10.1287 9.87868C9.56607 10.4413 9.25 11.2044 9.25 12C9.25 12.7956 9.56607 13.5587 10.1287 14.1213C10.6913 14.6839 11.4544 15 12.25 15C13.0456 15 13.8087 14.6839 14.3713 14.1213C14.9339 13.5587 15.25 12.7956 15.25 12C15.25 11.2044 14.9339 10.4413 14.3713 9.87868C13.8087 9.31607 13.0456 9 12.25 9ZM12.25 17C10.9239 17 9.65215 16.4732 8.71447 15.5355C7.77678 14.5979 7.25 13.3261 7.25 12C7.25 10.6739 7.77678 9.40215 8.71447 8.46447C9.65215 7.52678 10.9239 7 12.25 7C13.5761 7 14.8479 7.52678 15.7855 8.46447C16.7232 9.40215 17.25 10.6739 17.25 12C17.25 13.3261 16.7232 14.5979 15.7855 15.5355C14.8479 16.4732 13.5761 17 12.25 17ZM12.25 4.5C7.25 4.5 2.98 7.61 1.25 12C2.98 16.39 7.25 19.5 12.25 19.5C17.25 19.5 21.52 16.39 23.25 12C21.52 7.61 17.25 4.5 12.25 4.5Z" fill="#32D583"/>
</svg>
