<svg width="58" height="60" viewBox="0 0 58 60" fill="none" xmlns="http://www.w3.org/2000/svg">
<path d="M29.252 40C29.861 40.0002 30.4492 39.7781 30.9061 39.3753C31.363 38.9725 31.6571 38.4168 31.7332 37.8125C31.7545 37.6413 31.612 37.5 31.4395 37.5H27.0645C26.892 37.5 26.7495 37.6413 26.7707 37.8125C26.8468 38.4168 27.141 38.9725 27.5978 39.3753C28.0547 39.7781 28.6429 40.0002 29.252 40ZM23.002 26.25C23.002 24.5924 23.6604 23.0027 24.8325 21.8306C26.0047 20.6585 27.5944 20 29.252 20C30.9096 20 32.4993 20.6585 33.6714 21.8306C34.8435 23.0027 35.502 24.5924 35.502 26.25V29.9338C35.502 29.9971 35.5195 30.055 35.5545 30.1075L37.6832 33.3012C37.8729 33.5871 37.9817 33.919 37.9978 34.2617C38.014 34.6044 37.9371 34.945 37.7751 35.2475C37.6132 35.5499 37.3724 35.8028 37.0782 35.9794C36.784 36.1559 36.4475 36.2494 36.1045 36.25H22.3995C22.0557 36.2508 21.7182 36.1581 21.423 35.9818C21.1279 35.8055 20.8863 35.5523 20.7241 35.2492C20.5619 34.9461 20.4852 34.6045 20.5022 34.2612C20.5192 33.9178 20.6293 33.5856 20.8207 33.3L22.9495 30.1075C22.9831 30.0557 23.0013 29.9955 23.002 29.9338V26.25ZM29.252 21.875C28.0916 21.875 26.9788 22.3359 26.1584 23.1564C25.3379 23.9769 24.877 25.0897 24.877 26.25V29.9338C24.877 30.3663 24.7495 30.7875 24.5095 31.1462L22.3807 34.3412L22.377 34.3538L22.3782 34.3612C22.3782 34.3638 22.3799 34.3663 22.3832 34.3687L22.3907 34.3737L22.3995 34.375H36.1045L36.1132 34.3737L36.1207 34.3687L36.1257 34.3612L36.127 34.3525L36.1232 34.34L33.9945 31.1475C33.755 30.7884 33.6272 30.3666 33.627 29.935V26.25C33.627 25.0897 33.166 23.9769 32.3456 23.1564C31.5251 22.3359 30.4123 21.875 29.252 21.875Z" fill="#878790"/>
<circle cx="35" cy="21" r="4" fill="#96FDBF"/>
</svg>
