<svg width="32" height="32" viewBox="0 0 32 32" fill="none" xmlns="http://www.w3.org/2000/svg">
<path fill-rule="evenodd" clip-rule="evenodd" d="M7 5V27H25V5H7ZM6 2C5.46957 2 4.96086 2.21071 4.58579 2.58579C4.21071 2.96086 4 3.46957 4 4V28C4 28.5304 4.21071 29.0391 4.58579 29.4142C4.96086 29.7893 5.46957 30 6 30H26C26.5304 30 27.0391 29.7893 27.4142 29.4142C27.7893 29.0391 28 28.5304 28 28V4C28 3.46957 27.7893 2.96086 27.4142 2.58579C27.0391 2.21071 26.5304 2 26 2H6ZM16 22C16 21.6022 16.158 21.2206 16.4393 20.9393C16.7206 20.658 17.1022 20.5 17.5 20.5H21C21.3978 20.5 21.7794 20.658 22.0607 20.9393C22.342 21.2206 22.5 21.6022 22.5 22C22.5 22.3978 22.342 22.7794 22.0607 23.0607C21.7794 23.342 21.3978 23.5 21 23.5H17.5C17.1022 23.5 16.7206 23.342 16.4393 23.0607C16.158 22.7794 16 22.3978 16 22ZM12 24C12.5304 24 13.0391 23.7893 13.4142 23.4142C13.7893 23.0391 14 22.5304 14 22C14 21.4696 13.7893 20.9609 13.4142 20.5858C13.0391 20.2107 12.5304 20 12 20C11.4696 20 10.9609 20.2107 10.5858 20.5858C10.2107 20.9609 10 21.4696 10 22C10 22.5304 10.2107 23.0391 10.5858 23.4142C10.9609 23.7893 11.4696 24 12 24ZM16 16C16 15.6022 16.158 15.2206 16.4393 14.9393C16.7206 14.658 17.1022 14.5 17.5 14.5H21C21.3978 14.5 21.7794 14.658 22.0607 14.9393C22.342 15.2206 22.5 15.6022 22.5 16C22.5 16.3978 22.342 16.7794 22.0607 17.0607C21.7794 17.342 21.3978 17.5 21 17.5H17.5C17.1022 17.5 16.7206 17.342 16.4393 17.0607C16.158 16.7794 16 16.3978 16 16ZM12 18C12.5304 18 13.0391 17.7893 13.4142 17.4142C13.7893 17.0391 14 16.5304 14 16C14 15.4696 13.7893 14.9609 13.4142 14.5858C13.0391 14.2107 12.5304 14 12 14C11.4696 14 10.9609 14.2107 10.5858 14.5858C10.2107 14.9609 10 15.4696 10 16C10 16.5304 10.2107 17.0391 10.5858 17.4142C10.9609 17.7893 11.4696 18 12 18ZM16 10C16 9.60218 16.158 9.22064 16.4393 8.93934C16.7206 8.65804 17.1022 8.5 17.5 8.5H21C21.3978 8.5 21.7794 8.65804 22.0607 8.93934C22.342 9.22064 22.5 9.60218 22.5 10C22.5 10.3978 22.342 10.7794 22.0607 11.0607C21.7794 11.342 21.3978 11.5 21 11.5H17.5C17.1022 11.5 16.7206 11.342 16.4393 11.0607C16.158 10.7794 16 10.3978 16 10ZM12 12C12.5304 12 13.0391 11.7893 13.4142 11.4142C13.7893 11.0391 14 10.5304 14 10C14 9.46957 13.7893 8.96086 13.4142 8.58579C13.0391 8.21071 12.5304 8 12 8C11.4696 8 10.9609 8.21071 10.5858 8.58579C10.2107 8.96086 10 9.46957 10 10C10 10.5304 10.2107 11.0391 10.5858 11.4142C10.9609 11.7893 11.4696 12 12 12Z" fill="#101010"/>
</svg>
