<svg width="32" height="32" viewBox="0 0 32 32" fill="none" xmlns="http://www.w3.org/2000/svg">
<path fill-rule="evenodd" clip-rule="evenodd" d="M18.6667 29.3332H13.3334C8.30535 29.3332 5.79069 29.3332 4.22935 27.7705C2.66669 26.2092 2.66669 23.6945 2.66669 18.6665V13.3332C2.66669 8.30517 2.66669 5.7905 4.22935 4.22917C5.79069 2.6665 8.31869 2.6665 13.3734 2.6665C14.1814 2.6665 14.828 2.6665 15.3734 2.68917C15.356 2.79584 15.3467 2.90384 15.3467 3.0145L15.3334 6.79317C15.3334 8.25584 15.3334 9.54917 15.4734 10.5905C15.6254 11.7198 15.9734 12.8492 16.896 13.7718C17.816 14.6918 18.9467 15.0412 20.076 15.1932C21.1174 15.3332 22.4107 15.3332 23.8734 15.3332H29.276C29.3334 16.0452 29.3334 16.9198 29.3334 18.0838V18.6665C29.3334 23.6945 29.3334 26.2092 27.7707 27.7705C26.2094 29.3332 23.6947 29.3332 18.6667 29.3332Z" fill="#101010"/>
<path d="M25.8026 10.1562L20.5226 5.40548C19.02 4.05215 18.2693 3.37482 17.3453 3.02148L17.3333 6.66682C17.3333 9.80948 17.3333 11.3815 18.3093 12.3575C19.2853 13.3335 20.8573 13.3335 24 13.3335H28.7733C28.2906 12.3948 27.424 11.6162 25.8026 10.1562Z" fill="#101010"/>
</svg>
