<svg width="16" height="17" viewBox="0 0 16 17" fill="none" xmlns="http://www.w3.org/2000/svg">
<g clip-path="url(#clip0_586_58)">
<path fill-rule="evenodd" clip-rule="evenodd" d="M7.98514 2.2144C7.50739 2.20578 7.03262 2.29145 6.58802 2.46651C6.14341 2.64158 5.73769 2.9026 5.39407 3.23464C5.05046 3.56669 4.7757 3.96323 4.58551 4.40159C4.39533 4.83994 4.29345 5.31149 4.28571 5.78926V10.7858C4.28571 11.0889 4.16531 11.3796 3.95098 11.594C3.73665 11.8083 3.44596 11.9287 3.14286 11.9287H1.71429C1.25963 11.9287 0.823594 11.7481 0.502103 11.4266C0.180612 11.1051 0 10.6691 0 10.2144L0 7.92869C0 7.47403 0.180612 7.038 0.502103 6.71651C0.823594 6.39502 1.25963 6.2144 1.71429 6.2144H2.57143V5.76869C2.58186 5.06628 2.73055 4.37281 3.00902 3.72787C3.28749 3.08294 3.69028 2.49918 4.19438 2.00993C4.69849 1.52069 5.29404 1.13554 5.94701 0.876479C6.59998 0.617422 7.2976 0.489534 8 0.500119C8.70241 0.489534 9.40002 0.617422 10.053 0.876479C10.706 1.13554 11.3015 1.52069 11.8056 2.00993C12.3097 2.49918 12.7125 3.08294 12.991 3.72787C13.2695 4.37281 13.4181 5.06628 13.4286 5.76869V6.2144H14.2857C14.7404 6.2144 15.1764 6.39502 15.4979 6.71651C15.8194 7.038 16 7.47403 16 7.92869V10.2144C16 10.6691 15.8194 11.1051 15.4979 11.4266C15.1764 11.7481 14.7404 11.9287 14.2857 11.9287H13.4286V12.5001C13.4287 13.2724 13.1445 14.0177 12.6302 14.5938C12.1158 15.1699 11.4074 15.5365 10.64 15.6235C10.491 15.8896 10.2737 16.1111 10.0105 16.2652C9.74733 16.4193 9.44782 16.5004 9.14286 16.5001H7.42857C6.97391 16.5001 6.53788 16.3195 6.21639 15.998C5.8949 15.6765 5.71429 15.2405 5.71429 14.7858C5.71429 14.3312 5.8949 13.8951 6.21639 13.5737C6.53788 13.2522 6.97391 13.0715 7.42857 13.0715H9.14286C9.76229 13.0715 10.3051 13.3995 10.6057 13.8921C10.9207 13.8197 11.2019 13.6426 11.4032 13.3898C11.6046 13.137 11.7142 12.8233 11.7143 12.5001V5.78812C11.7064 5.30789 11.6035 4.83398 11.4114 4.39378C11.2193 3.95358 10.9418 3.55583 10.595 3.22351C10.2483 2.8912 9.83908 2.63091 9.39111 2.45771C8.94313 2.2845 8.46527 2.2018 7.98514 2.2144Z" fill="#32D583"/>
</g>
<defs>
<clipPath id="clip0_586_58">
<rect width="16" height="16" fill="white" transform="translate(0 0.5)"/>
</clipPath>
</defs>
</svg>
