<svg width="40" height="40" viewBox="0 0 40 40" fill="none" xmlns="http://www.w3.org/2000/svg">
<path d="M7.91669 25.9352C8.60714 26.4873 9.48862 26.7425 10.3672 26.6446C11.2458 26.5468 12.0496 26.104 12.6017 25.4135L17.25 19.6035L21.3334 22.6669C22.0265 23.1864 22.8946 23.4156 23.7539 23.3061C24.6131 23.1966 25.396 22.7569 25.9367 22.0802L32.6034 13.7469C33.1557 13.0564 33.4111 12.1748 33.3134 11.2961C33.2157 10.4173 32.773 9.61335 32.0825 9.06103C31.3921 8.50872 30.5105 8.25331 29.6317 8.35098C28.753 8.44866 27.949 8.89142 27.3967 9.58187L22.7484 15.3919L18.6667 12.3335C17.974 11.8137 17.1061 11.5838 16.2469 11.6927C15.3876 11.8016 14.6045 12.2406 14.0634 12.9169L7.39669 21.2502C6.84485 21.9406 6.58966 22.8219 6.68716 23.7003C6.78466 24.5788 7.22689 25.3826 7.91669 25.9352ZM8.33335 35.0002H31.6667C32.1087 35.0002 32.5326 34.8246 32.8452 34.512C33.1578 34.1995 33.3334 33.7756 33.3334 33.3335C33.3334 32.8915 33.1578 32.4676 32.8452 32.155C32.5326 31.8425 32.1087 31.6669 31.6667 31.6669H8.33335C7.89133 31.6669 7.4674 31.8425 7.15484 32.155C6.84228 32.4676 6.66669 32.8915 6.66669 33.3335C6.66669 33.7756 6.84228 34.1995 7.15484 34.512C7.4674 34.8246 7.89133 35.0002 8.33335 35.0002Z" fill="#ABAAAA"/>
</svg>
