<svg width="18" height="19" viewBox="0 0 18 19" fill="none" xmlns="http://www.w3.org/2000/svg">
<path d="M8.9625 14C9.225 14 9.447 13.9093 9.6285 13.7278C9.81 13.5463 9.9005 13.3245 9.9 13.0625C9.8995 12.8005 9.809 12.5785 9.6285 12.3965C9.448 12.2145 9.226 12.124 8.9625 12.125C8.699 12.126 8.47725 12.2168 8.29725 12.3973C8.11725 12.5778 8.0265 12.7995 8.025 13.0625C8.0235 13.3255 8.11425 13.5475 8.29725 13.7285C8.48025 13.9095 8.702 14 8.9625 14ZM8.2875 11.1125H9.675C9.675 10.7 9.722 10.375 9.816 10.1375C9.91 9.9 10.1755 9.575 10.6125 9.1625C10.9375 8.8375 11.1938 8.528 11.3813 8.234C11.5688 7.94 11.6625 7.587 11.6625 7.175C11.6625 6.475 11.4063 5.9375 10.8938 5.5625C10.3813 5.1875 9.775 5 9.075 5C8.3625 5 7.7845 5.1875 7.341 5.5625C6.8975 5.9375 6.588 6.3875 6.4125 6.9125L7.65 7.4C7.7125 7.175 7.85325 6.93125 8.07225 6.66875C8.29125 6.40625 8.6255 6.275 9.075 6.275C9.475 6.275 9.775 6.3845 9.975 6.6035C10.175 6.8225 10.275 7.063 10.275 7.325C10.275 7.575 10.2 7.8095 10.05 8.0285C9.9 8.2475 9.7125 8.4505 9.4875 8.6375C8.9375 9.125 8.6 9.49375 8.475 9.74375C8.35 9.99375 8.2875 10.45 8.2875 11.1125ZM9 17C7.9625 17 6.9875 16.8033 6.075 16.4098C5.1625 16.0163 4.36875 15.4818 3.69375 14.8063C3.01875 14.1308 2.4845 13.337 2.091 12.425C1.6975 11.513 1.5005 10.538 1.5 9.5C1.4995 8.462 1.6965 7.487 2.091 6.575C2.4855 5.663 3.01975 4.86925 3.69375 4.19375C4.36775 3.51825 5.1615 2.984 6.075 2.591C6.9885 2.198 7.9635 2.001 9 2C10.0365 1.999 11.0115 2.196 11.925 2.591C12.8385 2.986 13.6323 3.52025 14.3063 4.19375C14.9803 4.86725 15.5148 5.661 15.9098 6.575C16.3048 7.489 16.5015 8.464 16.5 9.5C16.4985 10.536 16.3015 11.511 15.909 12.425C15.5165 13.339 14.9823 14.1328 14.3063 14.8063C13.6303 15.4798 12.8365 16.0143 11.925 16.4098C11.0135 16.8053 10.0385 17.002 9 17Z" fill="white"/>
</svg>
